<?xml version="1.0" encoding="UTF-8" standalone="no"?>
<!-- Created with Inkscape (http://www.inkscape.org/) -->

<svg
   xmlns:dc="http://purl.org/dc/elements/1.1/"
   xmlns:cc="http://creativecommons.org/ns#"
   xmlns:rdf="http://www.w3.org/1999/02/22-rdf-syntax-ns#"
   xmlns:svg="http://www.w3.org/2000/svg"
   xmlns="http://www.w3.org/2000/svg"
   xmlns:sodipodi="http://sodipodi.sourceforge.net/DTD/sodipodi-0.dtd"
   xmlns:inkscape="http://www.inkscape.org/namespaces/inkscape"
   width="36"
   height="36"
   viewBox="0 0 9.5249998 9.5250003"
   version="1.1"
   id="svg1535"
   inkscape:version="0.92.2 (unknown)"
   sodipodi:docname="ma_ico.svg">
  <defs
     id="defs1529">
    <clipPath
       clipPathUnits="userSpaceOnUse"
       id="clipPath1525">
      <rect
         style="opacity:1;fill:#ffffff;fill-opacity:1;fill-rule:nonzero;stroke:none;stroke-width:0.38799998;stroke-linecap:round;stroke-miterlimit:4;stroke-dasharray:none;stroke-opacity:1"
         id="rect1527"
         width="80.877174"
         height="73.325989"
         x="57.193054"
         y="16.779541" />
    </clipPath>
  </defs>
  <sodipodi:namedview
     id="base"
     pagecolor="#ffffff"
     bordercolor="#666666"
     borderopacity="1.0"
     inkscape:pageopacity="0.0"
     inkscape:pageshadow="2"
     inkscape:zoom="3.9923528"
     inkscape:cx="67.901554"
     inkscape:cy="3.7535529"
     inkscape:document-units="mm"
     inkscape:current-layer="layer1"
     showgrid="false"
     units="px"
     inkscape:window-width="1366"
     inkscape:window-height="693"
     inkscape:window-x="0"
     inkscape:window-y="24"
     inkscape:window-maximized="1" />
  <metadata
     id="metadata1532">
    <rdf:RDF>
      <cc:Work
         rdf:about="">
        <dc:format>image/svg+xml</dc:format>
        <dc:type
           rdf:resource="http://purl.org/dc/dcmitype/StillImage" />
        <dc:title></dc:title>
      </cc:Work>
    </rdf:RDF>
  </metadata>
  <g
     inkscape:label="Capa 1"
     inkscape:groupmode="layer"
     id="layer1"
     transform="translate(0,-287.47498)">
    <g
       transform="matrix(0.11019334,0,0,0.11019334,-5.983319,286.34107)"
       id="g1487"
       clip-path="url(#clipPath1525)">
      <g
         transform="matrix(0.48863118,0,0,0.48863118,7.8708419,73.564136)"
         id="g1122"
         style="display:inline">
        <path
           inkscape:connector-curvature="0"
           style="opacity:1;fill:#000000;fill-opacity:1;fill-rule:nonzero;stroke:none;stroke-width:0.73158181;stroke-linecap:round;stroke-miterlimit:4;stroke-dasharray:none;stroke-opacity:1"
           d="m 203.31947,-111.78493 a 77.374725,77.374725 0 0 0 -98.22811,48.218025 77.374725,77.374725 0 0 0 48.21754,98.227933 77.374725,77.374725 0 0 0 98.22794,-48.217533 77.374725,77.374725 0 0 0 -48.21737,-98.228425 z m -3.31952,9.72055 a 67.103256,67.103256 0 0 1 6.23146,2.482408 67.103256,67.103256 0 0 1 5.95246,3.091555 67.103256,67.103256 0 0 1 5.61369,3.671013 67.103256,67.103256 0 0 1 5.21965,4.212476 67.103256,67.103256 0 0 1 4.77294,4.713023 67.103256,67.103256 0 0 1 4.27806,5.165992 67.103256,67.103256 0 0 1 3.74138,5.567013 67.103256,67.103256 0 0 1 3.16739,5.912689 67.103256,67.103256 0 0 1 2.56045,6.199617 67.103256,67.103256 0 0 1 1.929,6.424106 67.103256,67.103256 0 0 1 1.27839,6.584718 67.103256,67.103256 0 0 1 0.61422,6.679542 67.103256,67.103256 0 0 1 -0.0554,6.706987 67.103256,67.103256 0 0 1 -0.72525,6.668252 67.103256,67.103256 0 0 1 -1.38698,6.562411 67.103256,67.103256 0 0 1 -1.37467,4.546719 67.103256,67.103256 0 0 1 -2.48224,6.230975 67.103256,67.103256 0 0 1 -3.09205,5.9522918 67.103256,67.103256 0 0 1 -3.67068,5.61434799 67.103256,67.103256 0 0 1 -4.21297,5.21947501 67.103256,67.103256 0 0 1 -4.71286,4.7724542 67.103256,67.103256 0 0 1 -5.16567,4.278713 67.103256,67.103256 0 0 1 -5.56701,3.741391 67.103256,67.103256 0 0 1 -5.91301,3.166729 67.103256,67.103256 0 0 1 -6.1993,2.561116 67.103256,67.103256 0 0 1 -6.4241,1.928996 67.103256,67.103256 0 0 1 -6.58455,1.277897 67.103256,67.103256 0 0 1 -6.67971,0.614701 67.103256,67.103256 0 0 1 -6.7073,-0.05601 67.103256,67.103256 0 0 1 -6.66794,-0.724603 67.103256,67.103256 0 0 1 -6.5629,-1.387148 67.103256,67.103256 0 0 1 -4.54606,-1.374985 67.103256,67.103256 0 0 1 -6.23164,-2.481922 67.103256,67.103256 0 0 1 -5.9523,-3.092052 67.103256,67.103256 0 0 1 -5.61386,-3.670523 67.103256,67.103256 0 0 1 -5.21947,-4.212954 67.103256,67.103256 0 0 1 -4.77295,-4.7130352 67.103256,67.103256 0 0 1 -4.27822,-5.165492 67.103256,67.103256 0 0 1 -3.74139,-5.567021 67.103256,67.103256 0 0 1 -3.16722,-5.913177 67.103256,67.103256 0 0 1 -2.56044,-6.1996108 67.103256,67.103256 0 0 1 -1.929,-6.424109 67.103256,67.103256 0 0 1 -1.27839,-6.584716 67.103256,67.103256 0 0 1 -0.61438,-6.679051 67.103256,67.103256 0 0 1 0.0555,-6.707477 67.103256,67.103256 0 0 1 0.72525,-6.668255 67.103256,67.103256 0 0 1 1.38698,-6.56241 67.103256,67.103256 0 0 1 1.3745,-4.546227 67.103256,67.103256 0 0 1 2.48242,-6.231469 67.103256,67.103256 0 0 1 3.09204,-5.952289 67.103256,67.103256 0 0 1 3.67052,-5.613859 67.103256,67.103256 0 0 1 4.21296,-5.219475 67.103256,67.103256 0 0 1 4.71253,-4.773111 67.103256,67.103256 0 0 1 5.16617,-4.278545 67.103256,67.103256 0 0 1 5.567,-3.741395 67.103256,67.103256 0 0 1 5.91301,-3.166725 67.103256,67.103256 0 0 1 6.19913,-2.560632 67.103256,67.103256 0 0 1 6.42428,-1.92948 67.103256,67.103256 0 0 1 6.58455,-1.2779 67.103256,67.103256 0 0 1 6.67955,-0.61421 67.103256,67.103256 0 0 1 6.70747,0.0555 67.103256,67.103256 0 0 1 6.66793,0.7246 67.103256,67.103256 0 0 1 6.5629,1.38715 67.103256,67.103256 0 0 1 4.54607,1.37498 z"
           id="path839" />
        <g
           id="g1099"
           transform="translate(-177.80386,-80.047098)">
          <path
             style="display:inline;opacity:1;fill:#ff0000;fill-opacity:1;fill-rule:nonzero;stroke:none;stroke-width:0.73158181;stroke-linecap:round;stroke-miterlimit:4;stroke-dasharray:none;stroke-opacity:1"
             d="m 340.75464,-34.348207 a 77.374725,77.374725 0 0 0 -27.3606,11.381219 l 7.29671,7.296711 a 67.289793,67.289793 0 0 1 20.06389,-8.273912 z m 30.72733,0.08113 v 10.313067 a 67.289793,67.289793 0 0 1 20.03598,8.311637 l 7.32462,-7.324617 a 77.374725,77.374725 0 0 0 -27.3606,-11.300087 z m -79.8158,33.0279585 A 77.374725,77.374725 0 0 0 280.36608,26.121488 h 10.31307 a 67.289793,67.289793 0 0 1 8.31164,-20.0359854 z m 128.90376,5.186e-4 -7.2962,7.2961949 a 67.289793,67.289793 0 0 1 8.27392,20.063891 h 10.40401 A 77.374725,77.374725 0 0 0 420.56993,-1.2385979 Z M 280.28443,56.84881 a 77.374725,77.374725 0 0 0 11.38225,27.360088 l 7.2962,-7.296195 A 67.289793,67.289793 0 0 1 290.68897,56.84881 Z m 141.27252,0 a 67.289793,67.289793 0 0 1 -8.31112,20.035988 l 7.32461,7.324616 A 77.374725,77.374725 0 0 0 431.87053,56.84881 Z m -100.83829,41.763859 -7.32462,7.324621 a 77.374725,77.374725 0 0 0 27.3606,11.30008 v -10.31358 a 67.289793,67.289793 0 0 1 -20.03598,-8.311121 z m 70.8272,0.02791 a 67.289793,67.289793 0 0 1 -20.06389,8.273911 v 10.40401 a 77.374725,77.374725 0 0 0 27.36008,-11.38173 z"
             id="path839-7"
             inkscape:connector-curvature="0" />
        </g>
      </g>
      <path
         inkscape:export-ydpi="96"
         inkscape:export-xdpi="96"
         inkscape:export-filename="/var/www/html/mundoanimalito.com/public/img/logo.png"
         inkscape:connector-curvature="0"
         id="path5019-9"
         d="m 95.669653,59.222583 c 1.61321,-0.32789 4.812117,-1.295511 5.953767,-1.80092 0.37007,-0.16382 1.11538,-0.494851 1.65625,-0.735619 1.6537,-0.736161 4.44644,-2.34723 5.95418,-3.434842 3.10024,-2.23633 5.47674,-4.344678 7.90434,-7.012458 0.23312,-0.256212 0.42445,-0.405162 0.42516,-0.331002 0.004,0.22719 -1.50173,3.06737 -1.93666,3.65746 -0.22512,0.305422 -0.53422,0.753782 -0.6869,0.99636 -0.15263,0.24258 -0.51494,0.708401 -0.80508,1.03515 -0.29011,0.32675 -0.71366,0.803712 -0.94114,1.0599 -1.04032,1.171451 -3.31771,3.025362 -4.89348,3.983551 -0.89502,0.54424 -3.28195,1.70888 -4.57834,2.233869 -4.064747,2.118924 -22.437073,3.258444 -8.052097,0.348551 z m -16.094736,0.41097 c -1.73675,-0.20991 -2.24285,-0.29469 -3.06806,-0.514019 -2.16983,-0.57671 -3.49181,-1.313151 -4.9005,-2.729921 -0.83302,-0.83783 -1.06052,-1.14309 -1.47103,-1.973871 -0.26707,-0.540528 -0.56769,-1.343779 -0.66802,-1.785009 -0.10029,-0.44123 -0.21953,-0.80224 -0.26487,-0.80224 -0.0454,0 -0.0824,-0.53843 -0.0824,-1.19652 0,-0.771319 0.0368,-1.17379 0.10355,-1.132549 0.057,0.0352 0.10353,-0.0222 0.10353,-0.12741 0,-0.30175 0.29537,-1.365182 0.57229,-2.06048 1.37985,-3.464592 4.91249,-6.781101 10.73189,-10.075351 0.15394,-0.0871 0.78279,-0.41982 1.397426,-0.73924 0.61463,-0.31943 1.39299,-0.73058 1.7297,-0.91369 0.33669,-0.18309 1.07838,-0.54241 1.64819,-0.7985 l 1.03601,-0.46563 0.65501,0.18759 c 0.36024,0.10316 0.65499,0.21925 0.65499,0.25795 0,0.0386 -0.22127,0.15132 -0.49169,0.25026 -0.43898,0.1606 -1.04159,0.41877 -3.85591,1.65198 -1.777026,0.77867 -5.382246,2.76808 -6.003816,3.31301 -0.14233,0.12477 -0.60813,0.46072 -1.03513,0.74653 -1.03945,0.69576 -2.74263,2.48509 -3.47337,3.649031 -2.22183,3.539029 -2.06838,8.581408 0.33509,11.010709 1.32341,1.337609 2.97628,2.07172 5.77538,2.56508 2.62606,0.46287 8.867256,0.20913 14.433616,-0.586801 0.99132,-0.141748 1.82116,-0.238958 1.84409,-0.216019 0.11185,0.111821 -2.71486,0.834351 -5.3027,1.355421 -0.74013,0.149029 -1.53201,0.312679 -1.75973,0.36367 -2.1321,0.47739 -7.266576,0.932429 -8.643436,0.766019 z m 1.25781,-3.06179 c -0.47533,-0.115269 -0.82467,-0.242139 -0.77636,-0.28194 0.0484,-0.0398 0.34407,-0.172501 0.65719,-0.294889 0.31313,-0.122391 1.12356,-0.439822 1.800946,-0.70539 1.2246,-0.48011 1.23369,-0.48188 1.59375,-0.310171 0.20042,0.0956 0.32069,0.21036 0.26935,0.257061 -0.34652,0.315109 -2.34637,1.559248 -2.49605,1.552829 -0.101536,-0.004 -0.573496,-0.102229 -1.048826,-0.2175 z m 12.116666,-0.574749 0.0306,-0.696651 0.55914,-0.12382 0.55916,-0.123819 0.60614,0.57817 c 0.33339,0.318 0.58487,0.599469 0.55882,0.625499 -0.0425,0.0426 -2.06216,0.431429 -2.26211,0.43557 -0.0453,0.0011 -0.0686,-0.31179 -0.0518,-0.694949 z M 75.889427,54.673113 c -2.47679,-1.915459 -3.59473,-4.008509 -3.2125,-6.014509 0.17163,-0.90076 0.71356,-2.04802 1.38782,-2.938071 1.07887,-1.424159 3.42374,-3.52423 5.12862,-4.5932 0.35218,-0.22083 0.80336,-0.52609 1.00261,-0.67838 0.59697,-0.4562 3.090096,-1.86869 4.265656,-2.41673 0.30128,-0.14044 0.89713,-0.41931 1.32413,-0.61965 0.8925,-0.41881 3.40456,-1.41424 4.24408,-1.68177 0.78004,-0.24859 0.85749,-0.32519 0.77672,-0.7685 -0.0957,-0.5256 -0.22771,-0.61647 -1.04429,-0.71898 -0.79262,-0.0995 -1.72935,-0.50988 -1.90251,-0.83343 -0.1266,-0.23658 -0.14191,-0.69789 -0.0256,-0.76984 0.045,-0.0278 0.27883,0.0819 0.51977,0.2437 1.36467,0.91654 4.64896,0.45635 5.89863,-0.826502 1.04051,-1.068134 1.09129,-2.623485 0.1085,-3.324412 -0.30366,-0.216567 -0.46022,-0.246607 -1.27769,-0.245147 -1.04863,0.003 -1.70799,0.176537 -1.70799,0.452387 0,0.0985 0.16304,0.449957 0.3623,0.780867 0.19926,0.330907 0.36231,0.612934 0.36231,0.626704 0,0.0479 -1.87627,0.695927 -1.9091,0.659427 -0.0183,-0.0202 0.0112,-0.357027 0.0642,-0.748487 0.15397,-1.126961 0.0676,-1.175841 -1.1,-0.622954 -0.30711,0.145407 -0.66526,0.248987 -0.79589,0.230207 -0.19887,-0.0287 -0.12856,-0.10351 0.4318,-0.460317 0.36813,-0.234397 0.87895,-0.538117 1.13515,-0.674877 l 0.46579,-0.248667 v -0.7113 c 0,-0.527 -0.0402,-0.73243 -0.15525,-0.79288 -0.0854,-0.0449 -0.37909,-0.18345 -0.6526,-0.30791 -0.3915,-0.178161 -0.49062,-0.272391 -0.46581,-0.44284 0.0382,-0.261631 0.67928,-0.72007 1.35131,-0.96611 0.27043,-0.099 0.4917,-0.217411 0.4917,-0.26309 0,-0.0457 0.22784,-0.0831 0.50634,-0.0831 0.49546,0 0.50993,0.009 0.67473,0.420879 0.18038,0.4508 0.15236,0.560271 -0.21876,0.854741 -0.29661,0.23534 -0.71335,0.94948 -0.80147,1.37337 -0.0999,0.48081 0.0952,0.58756 0.72473,0.39654 0.77253,-0.23438 2.01816,-0.30424 2.60274,-0.14594 1.78357,0.48289 2.69167,1.779734 2.15153,3.072515 -0.23035,0.551297 -0.97203,1.370814 -1.66684,1.841806 -0.33483,0.22699 -0.64299,0.45988 -0.68484,0.51759 -0.11023,0.15215 -0.096,0.71996 0.0261,1.04128 0.0923,0.24269 0.1468,0.26952 0.43995,0.21649 2.64945,-0.47929 3.12309,-0.51992 6.131397,-0.52585 3.07821,-0.006 4.3519,0.0876 6.10733,0.44904 4.77022,0.98222 7.48846,2.74624 8.29661,5.38417 0.0768,0.25102 0.13982,0.86883 0.13982,1.37293 v 0.91655 l -1.26805,1.23171 c -0.69743,0.67744 -1.28063,1.219341 -1.296,1.204241 -0.0152,-0.01511 0.0901,-0.465201 0.23452,-1.00017 0.46592,-1.726581 0.33585,-3.649301 -0.32951,-4.871801 -1.80797,-3.32181 -8.89397,-4.82476 -16.981047,-3.6017 -1.09028,0.1649 -1.26978,0.24481 -1.26978,0.56535 0,0.34566 0.64694,1.9958 1.11606,2.84664 0.47246,0.85695 1.97998,3.14945 2.38037,3.61989 l 0.3057,0.3592 1.33376,-0.19718 c 2.518087,-0.37229 4.343047,-0.22074 5.109657,0.42433 0.55933,0.47066 0.75334,0.989629 0.70694,1.89116 -0.0348,0.67532 -0.0901,0.86664 -0.39327,1.355619 -0.41343,0.667102 -0.93688,1.345692 -1.03808,1.345692 -0.0391,0 -0.008,-0.244552 0.0703,-0.543451 0.67817,-2.6097 0.0614,-3.80164 -1.96818,-3.80357 -0.84304,-7.41e-4 -2.415147,0.30239 -2.680007,0.51687 l -0.22025,0.17834 0.40285,0.557861 c 0.22159,0.306819 0.628577,0.808699 0.904417,1.115279 0.43965,0.488649 0.49336,0.597221 0.43521,0.879859 -0.14273,0.693682 -0.57396,1.43954 -1.164397,2.013932 -0.73388,0.713898 -1.6256,1.062 -3.49801,1.365498 -1.44801,0.234702 -1.3889,0.230111 -1.3889,0.107892 0,-0.0527 0.38431,-0.250261 0.85399,-0.439002 1.16458,-0.467979 2.3129,-1.072898 2.8725,-1.513168 0.83033,-0.653261 1.449257,-1.302692 1.447967,-1.519351 -2.7e-4,-0.137901 -0.260637,-0.414229 -0.750497,-0.79824 -1.17788,-0.923369 -3.0499,-2.87126 -3.75948,-3.91185 -1.0072,-1.47705 -1.42451,-2.45213 -1.85831,-4.34211 -0.13606,-0.59276 -0.28832,-1.11869 -0.33838,-1.16874 -0.15355,-0.15356 -1.36266,0.42998 -1.41337,0.68209 -0.024,0.12027 -0.0668,1.22018 -0.0947,2.44423 -0.0537,2.35439 -0.23903,4.64407 -0.38919,4.80826 -0.0513,0.056 -0.0893,-0.90341 -0.0885,-2.22557 8e-4,-2.62754 -0.23698,-5.14822 -0.49684,-5.24795 -0.22668,-0.087 -1.12608,0.23035 -2.86802,1.01192 -2.1754,0.97604 -2.95204,1.4003 -4.83243,2.63984 -4.572517,3.01417 -7.520177,6.30538 -8.268837,9.232579 -0.11061,0.432602 -0.20116,1.027851 -0.20116,1.322771 0,1.192501 0.69798,3.01915 1.52111,3.980789 0.20171,0.235651 0.34473,0.450472 0.31785,0.477372 -0.027,0.0269 -0.32357,-0.16351 -0.65926,-0.42313 z m 2.28803,0.1403 c -0.31075,-0.17145 -0.77636,-0.62697 -0.77636,-0.75955 0,-0.0642 0.15793,-0.192039 0.35094,-0.28408 0.34071,-0.16247 0.3578,-0.16002 0.58737,0.0843 0.32615,0.347189 0.55668,0.318228 1.39241,-0.174892 1.1523,-0.679929 1.82675,-0.644639 2.478286,0.129662 0.23957,0.28471 0.25627,0.344329 0.1182,0.421619 -0.10402,0.0582 -0.28056,0.0276 -0.499606,-0.0867 -0.18629,-0.0972 -0.55402,-0.180451 -0.81719,-0.185002 -0.40856,-0.007 -0.58265,0.0636 -1.1918,0.483442 -0.74282,0.512019 -1.19973,0.615288 -1.64221,0.37117 z m 8.729836,-0.24153 c -3.25065,-0.617461 -4.70224,-2.5204 -3.44358,-4.51426 0.55901,-0.885531 1.77476,-1.99095 3.20191,-2.911361 1.16457,-0.75106 3.65646,-2.06973 3.77393,-1.997109 0.25471,0.157411 0.0938,0.46778 -0.38383,0.740391 -1.65968,0.94728 -3.56524,2.28605 -4.49801,3.160178 -0.78109,0.73198 -1.32468,1.64211 -1.32468,2.217931 0,0.740989 0.50599,1.35056 1.56149,1.881171 1.04634,0.526008 1.92822,0.734799 3.45896,0.81892 1.91461,0.105209 4.17313,-0.15938 6.9587,-0.815242 0.9329,-0.219649 0.96822,-0.22061 1.53592,-0.0416 0.3196,0.10074 0.56261,0.201629 0.54003,0.224208 -0.11084,0.11085 -3.25978,0.734772 -5.25637,1.041482 -2.15709,0.33137 -4.94093,0.420159 -6.12447,0.19535 z m 15.759917,-0.19178 c 0.0238,-0.0199 0.53222,-0.377889 1.13004,-0.79546 0.59776,-0.41757 1.71572,-1.202129 2.48432,-1.743469 0.76861,-0.54134 1.63622,-1.14995 1.92804,-1.35246 2.72006,-1.887572 4.26144,-3.169131 5.79487,-4.818131 1.9741,-2.122879 2.98815,-4.00918 2.97025,-5.52511 -0.008,-0.67847 -0.0569,-0.85943 -0.44683,-1.64584 -0.97557,-1.96875 -3.76864,-4.06421 -6.93318,-5.20147 -2.72094,-0.977852 -6.1412,-1.371402 -10.078127,-1.159672 -1.19914,0.0645 -2.19503,0.10245 -2.2131,0.0843 -0.018,-0.0181 0.0523,-0.13808 0.15654,-0.2667 0.16139,-0.199287 0.3645,-0.254487 1.37413,-0.373427 1.676867,-0.19756 5.874547,-0.19011 7.248037,0.0129 3.79669,0.561057 7.7563,2.273469 10.57841,4.574869 0.8649,0.70533 1.26053,1.19639 1.56319,1.94028 0.12873,0.31642 0.26597,0.54336 0.30499,0.50435 0.039,-0.0391 0.0711,0.49576 0.0711,1.18845 0,0.69267 -0.0355,1.25942 -0.0791,1.25942 -0.0435,0 -0.16664,0.31442 -0.27384,0.69873 -0.53516,1.91857 -2.17159,4.34273 -4.13072,6.119118 -0.90459,0.82023 -3.21096,2.559762 -4.26347,3.215661 -0.39853,0.24836 -0.95751,0.60139 -1.24218,0.78453 -1.08068,0.695251 -1.73535,1.001231 -3.7589,1.756791 -1.89567,0.707818 -2.31178,0.849198 -2.18453,0.742259 z m -26.665063,-1.85288 c -0.25894,-0.716169 -0.33556,-0.99999 -0.28387,-1.051661 0.11584,-0.115808 6.11745,-0.068 6.189946,0.0493 0.0375,0.0607 0.0441,0.134551 0.0146,0.164071 -0.0613,0.0613 -5.379496,0.96769 -5.677976,0.96769 -0.10777,0 -0.21693,-0.0582 -0.24266,-0.12939 z m 22.386906,-0.0296 c -0.63335,-0.203121 -1.21673,-0.773732 -1.21673,-1.19013 0,-0.396042 0.32774,-0.721151 0.72699,-0.721151 0.30975,0 0.31121,0.003 0.14386,0.258029 -0.23166,0.35356 -0.11894,0.7131 0.30573,0.97559 0.63196,0.39057 1.689787,0.220121 2.319457,-0.373758 0.31595,-0.29796 0.35392,-0.386381 0.30238,-0.704001 -0.0547,-0.3376 -0.0443,-0.355459 0.14715,-0.252939 0.24025,0.128588 0.60812,0.694929 0.60868,0.93711 0.002,0.794599 -2.098257,1.468659 -3.337517,1.07125 z m -8.77326,-0.01 c -1.13291,-0.145429 -3.21342,-0.82776 -3.29803,-1.081641 -0.0275,-0.0829 0.0407,-0.105788 0.20496,-0.0688 3.73525,0.842049 5.70338,0.904721 8.60409,0.273981 0.49757,-0.108201 0.95175,-0.19671 1.00927,-0.19671 0.12992,0 0.13921,0.48396 0.0112,0.563319 -0.0516,0.0319 -0.64549,0.15484 -1.31981,0.273259 -1.18908,0.208812 -4.3202,0.350952 -5.21133,0.236562 z m 14.335557,-2.931959 c 0.1132,-0.12682 0.28333,-0.27204 0.37799,-0.322702 0.13746,-0.0736 3.17704,-0.760259 4.33306,-0.978908 0.20638,-0.0391 0.11592,0.0847 -0.44704,0.611338 l -0.70582,0.660302 -0.95039,0.0666 c -0.52273,0.0366 -1.36965,0.0952 -1.88204,0.13028 l -0.93164,0.0637 z m -20.598187,-2.18997 c -0.62626,-0.036 -2.221666,-0.0713 -3.545356,-0.0785 -1.32368,-0.008 -2.40671,-0.0539 -2.40671,-0.103629 0,-0.137099 0.52539,-1.04825 0.60407,-1.047599 0.0378,2.64e-4 0.65105,0.112609 1.36272,0.249459 0.71167,0.136909 2.21391,0.377521 3.338326,0.53471 1.86012,0.260041 2.28482,0.364969 1.91501,0.47312 -0.0711,0.0208 -0.64179,0.009 -1.26806,-0.0276 z m 22.923667,-0.292732 c 0.34609,-0.436989 0.90742,-0.83411 1.17898,-0.83411 0.0917,0 0.31896,0.093 0.50538,0.20664 0.18639,0.113681 0.49695,0.206811 0.6901,0.20702 0.30025,2.65e-4 0.45333,-0.106 1.0549,-0.733239 0.60565,-0.631399 0.76544,-0.741911 1.14673,-0.793049 l 0.44301,-0.0594 -0.19432,0.301361 c -0.4126,0.6399 -1.45058,1.715471 -1.794,1.858941 -0.51157,0.213749 -0.57751,0.198109 -1.11104,-0.263652 -0.2631,-0.22773 -0.54774,-0.41406 -0.63249,-0.41406 -0.24618,0 -0.68838,0.265991 -1.01721,0.611852 -0.4519,0.4753 -0.66203,0.40663 -0.27004,-0.0883 z M 83.540373,45.804663 c -0.34137,-0.16496 -0.37279,-0.37502 -0.17194,-1.149411 0.18963,-0.73111 0.15686,-0.92488 -0.19369,-1.146008 -0.45818,-0.289011 -1.868076,0.669859 -2.007116,1.36503 -0.0467,0.233828 -0.12392,0.32943 -0.2659,0.32943 -0.26241,0 -1.11978,-0.216892 -1.11978,-0.283281 0,-0.102449 0.64544,-0.78373 1.21275,-1.28016 0.6978,-0.61064 1.693616,-1.12793 2.171296,-1.12793 0.5058,0 1.04795,0.25889 1.1886,0.56756 0.10627,0.23326 0.0767,0.361271 -0.22912,0.99357 -0.48199,0.996291 -0.4174,1.085461 0.76573,1.05738 0.48918,-0.0118 1.13195,-0.0931 1.42835,-0.181149 0.60383,-0.179322 1.08137,-0.20673 1.16769,-0.0671 0.0571,0.0923 -1.47606,0.723069 -2.27081,0.934421 -0.51952,0.138149 -1.37768,0.131799 -1.67606,-0.01249 z m 22.948237,-0.63064 c 0,-0.0733 0.68706,-0.478081 1.52683,-0.899609 0.83976,-0.421511 2.17127,-1.202361 2.95893,-1.735221 l 1.43215,-0.96883 -0.0715,0.6676 c -0.13471,1.257829 -0.16585,1.331759 -0.62162,1.475899 -0.22623,0.0716 -1.4496,0.459351 -2.71853,0.861751 -1.2689,0.402381 -2.35193,0.73161 -2.40671,0.73161 -0.0547,0 -0.0996,-0.0599 -0.0996,-0.1332 z M 88.373623,43.666512 c -0.89897,-0.377149 -1.19887,-0.541009 -2.5361,-1.385799 -1.55723,-0.98375 -1.80998,-1.15554 -1.8108,-1.23071 -2.6e-4,-0.0842 0.97524,-0.50444 1.17191,-0.50444 0.0831,0 0.6795,0.49496 1.32562,1.09994 0.64615,0.60494 1.5129,1.35436 1.92614,1.66537 1.0143,0.763391 1.0044,0.80923 -0.0767,0.355639 z m 16.625337,-2.171019 c -0.029,-0.0469 0.47047,-0.6901 1.10986,-1.42942 0.63939,-0.73933 1.40617,-1.6792 1.70393,-2.08859 0.29778,-0.40941 0.56369,-0.74437 0.59093,-0.74437 0.0758,0 1.39737,0.53587 1.39737,0.56665 0,0.12371 -2.1792,2.11672 -3.11766,2.85133 -1.07483,0.84132 -1.54169,1.07536 -1.68443,0.8444 z m -5.909677,-0.97579 c 0.0441,-0.52666 0.088,-1.7261 0.0973,-2.6655 l 0.0168,-1.70798 0.74427,-0.0304 c 0.409367,-0.0167 0.744287,-0.005 0.744287,0.0266 0,0.48635 -1.179857,4.96141 -1.372427,5.20535 -0.25067,0.31757 -0.30874,0.10849 -0.2301,-0.8281 z m 3.997247,-0.03 c -0.72497,-0.15733 -1.15256,-0.38577 -1.15256,-0.61579 0,-0.0821 0.32608,-0.47221 0.72463,-0.86681 0.41771,-0.4136 0.72458,-0.80536 0.72458,-0.92503 0,-0.27525 -0.5182,-0.45376 -1.06388,-0.3665 l -0.41681,0.0667 0.0722,-0.45179 c 0.0395,-0.2485 0.0942,-0.47368 0.1208,-0.5004 0.0668,-0.0668 2.01522,0.16781 2.58449,0.31116 0.25459,0.064 0.46285,0.15585 0.46285,0.20391 0,0.0481 -0.27839,0.27641 -0.61861,0.50745 -1.0002,0.67922 -1.07287,1.13265 -0.26362,1.64585 l 0.45741,0.29007 -0.43849,0.43031 c -0.24116,0.23669 -0.45999,0.42664 -0.4863,0.42212 -0.0264,-0.005 -0.34436,-0.0725 -0.70678,-0.15122 z"
         style="display:inline;fill:#000000;fill-opacity:1;stroke:none;stroke-width:0.45848787;stroke-miterlimit:4;stroke-dasharray:none;stroke-opacity:1"
         sodipodi:nodetypes="cccccccssccccsscccsscscccscccscscccssscscscccsccccccccccccccccccsccccccscccscscccccccsccccsscscccccccccccscscccsscccscccsccccccccssccccccccccccsscsccccsccsccccccsccccsssssccssccccsccssccccsccsscscccccccccscsssccccccscccsscccccccccccccccsccsccccsccccccccsccccccsscscccccsccssccsccsssscsccsccsssccccccsccccscscccccssccccc" />
      <rect
         transform="matrix(0.98859995,-0.15056605,0.01199181,0.9999281,0,0)"
         y="85.969833"
         x="64.183914"
         height="22.352175"
         width="68.625862"
         id="rect1164"
         style="display:inline;opacity:1;fill:#ffffff;fill-opacity:1;fill-rule:nonzero;stroke:none;stroke-width:0.12144688;stroke-linecap:round;stroke-miterlimit:4;stroke-dasharray:none;stroke-opacity:1" />
      <text
         transform="rotate(-6.7511906)"
         inkscape:export-ydpi="96"
         inkscape:export-xdpi="96"
         inkscape:export-filename="/var/www/html/mundoanimalito.com/public/img/logo.png"
         xml:space="preserve"
         style="font-style:normal;font-variant:normal;font-weight:normal;font-stretch:condensed;font-size:14.10334015px;line-height:1.25;font-family:Impact;-inkscape-font-specification:'Impact, Condensed';font-variant-ligatures:normal;font-variant-caps:normal;font-variant-numeric:normal;font-feature-settings:normal;text-align:center;letter-spacing:0px;word-spacing:0px;writing-mode:lr-tb;text-anchor:middle;display:inline;fill:#000000;fill-opacity:1;stroke:none;stroke-width:0.44981143;stroke-miterlimit:4;stroke-dasharray:none;stroke-opacity:1"
         x="94.283302"
         y="95.296013"
         id="text5017-6"><tspan
           sodipodi:role="line"
           id="tspan5015-2"
           x="94.283302"
           y="95.296013"
           style="font-style:normal;font-variant:normal;font-weight:normal;font-stretch:condensed;font-size:14.10334015px;font-family:Impact;-inkscape-font-specification:'Impact, Condensed';font-variant-ligatures:normal;font-variant-caps:normal;font-variant-numeric:normal;font-feature-settings:normal;text-align:center;writing-mode:lr-tb;text-anchor:middle;fill:#000000;fill-opacity:1;stroke:none;stroke-width:0.44981143;stroke-miterlimit:4;stroke-dasharray:none;stroke-opacity:1">ANIMALITOS</tspan></text>
      <path
         transform="matrix(1.1019774,-0.1728054,0.1728054,1.1019774,-91.576156,86.550016)"
         d="m 149.38281,-8.71875 a 1.0075991,1.0075991 0 0 0 -0.97461,0.7246094 c -0.77356,2.6407824 -1.58628,5.0546391 -2.43554,7.2441406 a 1.0075991,1.0075991 0 0 0 -0.002,0.005859 c -0.8341,2.18453982 -1.70408,4.08675072 -2.60351,5.70312502 -0.89932,1.6027374 -1.81523,2.9052012 -2.73047,3.9082031 -0.89824,0.970878 -1.77955,1.5718285 -2.63281,1.8671875 a 1.0075991,1.0075991 0 0 0 -0.1875,1.814453 c 0.30982,0.185887 0.69956,0.391906 1.1875,0.628906 0.48038,0.233329 0.99353,0.466966 1.53906,0.699219 0.55763,0.250934 1.11709,0.481899 1.67578,0.691406 0.56482,0.211808 1.07416,0.375175 1.53516,0.494141 a 1.0075991,1.0075991 0 0 0 1.13476,-0.490234 c 1.2846,-2.336879 2.37377,-4.6701844 3.26563,-7.0019535 l 0.002,-0.00586 c 0.22459,-0.5786566 0.34644,-1.1675084 0.55078,-1.7480469 0.0354,0.2851358 0.0536,0.5838482 0.0937,0.8652344 a 1.0075991,1.0075991 0 0 0 0.002,0.013672 c 0.16537,1.0473181 0.36016,2.0187403 0.58399,2.9140625 a 1.0075991,1.0075991 0 0 0 0,0.00391 c 0.22564,0.8884618 0.45882,1.5934488 0.74219,2.1601568 a 1.0075991,1.0075991 0 0 0 1.39453,0.427734 l 2.58398,-1.453125 a 1.0075991,1.0075991 0 0 0 0.0352,-0.02344 c -0.007,0.07134 -0.0129,0.129997 -0.0195,0.203125 a 1.0075991,1.0075991 0 0 0 0.3164,0.828125 c 0.22237,0.207541 0.48541,0.436216 0.79493,0.689453 a 1.0075991,1.0075991 0 0 0 0.0391,0.03125 c 0.32145,0.237599 0.65593,0.473697 1.00195,0.708985 a 1.0075991,1.0075991 0 0 0 0.0234,0.01367 c 0.34599,0.221437 0.68806,0.434083 1.02539,0.630859 a 1.0075991,1.0075991 0 0 0 0.0156,0.0078 c 0.3589,0.200978 0.67042,0.358543 0.95704,0.476562 a 1.0075991,1.0075991 0 0 0 1.38281,-1.054687 c -0.0381,-0.311761 -0.0385,-0.711845 -0.0684,-1.042969 0.0577,0.04906 0.099,0.147831 0.1582,0.193359 0.22131,0.18216 0.46683,0.345491 0.74024,0.490235 0.25664,0.135871 0.51432,0.25659 0.77343,0.363281 a 1.0075991,1.0075991 0 0 0 0.0469,0.01758 c 0.29945,0.105691 0.59254,0.179688 0.92187,0.179688 0.53607,0 1.06517,-0.245285 1.4375,-0.595704 a 1.0075991,1.0075991 0 0 0 0.0215,-0.02148 c 0.17925,-0.179255 0.30759,-0.414595 0.45508,-0.628906 0.002,0.0018 0.002,0.006 0.004,0.0078 a 1.0075991,1.0075991 0 0 0 0.0566,0.04883 c 0.25492,0.203937 0.53765,0.388965 0.84961,0.560547 0.31931,0.175618 0.65152,0.321341 0.99414,0.435547 0.35216,0.117385 0.68858,0.193359 1.04492,0.19336 0.65353,0 1.10449,-0.377785 1.45704,-0.791016 a 1.0075991,1.0075991 0 0 0 0.98242,0.791016 h 0.46484 a 1.0075991,1.0075991 0 0 0 0.0664,-0.002 c 0.22274,-0.01485 0.4506,-0.03728 0.68359,-0.06641 a 1.0075991,1.0075991 0 0 0 0.0508,-0.0078 c 0.23209,-0.04096 0.45674,-0.08198 0.67578,-0.123047 a 1.0075991,1.0075991 0 0 0 0.0586,-0.01367 c 0.2584,-0.0646 0.4934,-0.138691 0.71679,-0.240235 a 1.0075991,1.0075991 0 0 0 0.58985,-0.867187 c 0.01,-0.19074 0.0502,-0.489401 0.125,-0.863281 a 1.0075991,1.0075991 0 0 0 0,-0.0059 c 0.005,-0.02757 0.0141,-0.06008 0.0195,-0.08789 0.0775,0.528361 0.34919,0.772161 0.5918,0.982422 a 1.0075991,1.0075991 0 0 0 0.0547,0.04492 c 0.26443,0.198316 0.56135,0.38289 0.89063,0.5625 a 1.0075991,1.0075991 0 0 0 0.0469,0.02344 c 0.33863,0.161954 0.68366,0.307154 1.03125,0.4375 a 1.0075991,1.0075991 0 0 0 0.0469,0.01563 c 0.38834,0.124269 0.75553,0.197902 1.13476,0.203125 0.71173,0.03193 1.20819,-0.402168 1.55469,-0.839844 0.0875,-0.109561 0.15735,-0.270151 0.24024,-0.390625 0.14719,0.142171 0.26275,0.333885 0.43164,0.4375 0.2865,0.183928 0.59805,0.343344 0.9375,0.472656 0.32579,0.124112 0.64668,0.220951 0.96093,0.28711 a 1.0075991,1.0075991 0 0 0 0.01,0.002 c 0.3355,0.0671 0.61833,0.115398 1,0.03906 a 1.0075991,1.0075991 0 0 0 0.0469,-0.01172 c 0.43179,-0.107949 0.74576,-0.369616 0.99218,-0.654297 0.12703,-0.138803 0.22111,-0.313286 0.32813,-0.472656 0.26242,0.192022 0.54967,0.366632 0.87109,0.527343 0.35011,0.175051 0.71763,0.318846 1.09766,0.429688 0.39669,0.115702 0.78492,0.18164 1.16992,0.181641 0.83583,0 1.16756,-0.514124 1.49023,-0.972657 a 1.0075991,1.0075991 0 0 0 0.01,-0.01367 c 0.16249,-0.239461 0.31628,-0.567718 0.47266,-0.857421 0.15972,0.221247 0.26466,0.485107 0.46093,0.673828 0.44028,0.423341 0.95825,0.75785 1.52735,0.992187 a 1.0075991,1.0075991 0 0 0 0.008,0.0039 c 0.57693,0.230772 1.18458,0.358346 1.80078,0.375 a 1.0075991,1.0075991 0 0 0 0.0273,0 c 0.32528,0 0.60456,-0.06328 0.93946,-0.154297 0.37339,-0.09741 0.74471,-0.233803 1.10937,-0.408203 0.37652,-0.180074 0.72684,-0.404483 1.04688,-0.671875 0.36734,-0.295028 0.67778,-0.65668 0.85156,-1.103515 a 1.0075991,1.0075991 0 0 0 0.01,-0.02539 c 0.21346,-0.594662 0.3665,-1.245794 0.46875,-1.9531249 v -0.00586 c 0.0864,-0.5299415 0.14097,-1.1411068 0.19336,-1.7558594 0.15414,-0.088111 0.30448,-0.1402534 0.46874,-0.2519532 a 1.0075991,1.0075991 0 0 0 0.008,-0.00586 c 0.38452,-0.2662087 0.75821,-0.5658535 1.12304,-0.9003907 l 0.004,-0.00391 c 0.38479,-0.3407505 0.74056,-0.7047589 1.06641,-1.0898438 0.35066,-0.4144314 0.62507,-0.8413425 0.79882,-1.3046874 A 1.0075991,1.0075991 0 0 0 200.07031,2.9355469 L 199.52539,2.4296875 A 1.0075991,1.0075991 0 0 0 197.92383,2.75 c -0.22738,0.4980705 -0.55884,0.9667843 -1.01758,1.4140625 a 1.0075991,1.0075991 0 0 0 -0.01,0.00781 c -0.0247,0.024703 -0.0514,0.032612 -0.0762,0.056641 -0.025,-0.3316302 -0.0518,-0.6563323 -0.0879,-0.9570312 -0.0221,-0.183975 -0.0436,-0.3392913 -0.0723,-0.4824219 -0.0202,-0.1007995 -0.0737,-0.2309661 -0.13086,-0.3671875 -0.14682,-0.3690274 -0.35838,-0.5235097 -0.51172,-0.6191406 -0.16446,-0.102568 -0.31475,-0.1647895 -0.48242,-0.2265625 -0.32894,-0.1211864 -0.68172,-0.202363 -1.0586,-0.2636719 -0.38209,-0.07773 -0.77234,-0.1210937 -1.16797,-0.1210938 -0.26742,10e-8 -0.51496,0.1044409 -0.76953,0.1699219 -0.3393,-0.05119 -0.69105,-0.078271 -1.07422,-0.066406 -0.52644,0.00113 -1.04993,0.1107813 -1.54687,0.3164062 a 1.0075991,1.0075991 0 0 0 -0.41016,0.3125 c -0.26118,0.335823 -0.35584,0.6068703 -0.53906,1.0585938 -7.4e-4,0.00177 -0.001,0.00409 -0.002,0.00586 -6.8e-4,0.00167 -0.001,0.00223 -0.002,0.00391 -0.162,0.3877947 -0.30277,0.8271449 -0.44336,1.2773437 -0.10177,0.2612269 -0.18834,0.4845408 -0.30859,0.7851563 a 1.0075991,1.0075991 0 0 0 -0.008,0.021484 c -0.1949,0.51973 -0.41967,1.0750239 -0.66992,1.6679687 -0.0242,0.056133 -0.048,0.1008914 -0.0723,0.15625 0.0175,-0.1496065 0.0212,-0.2599601 0.041,-0.4160156 0.10617,-0.836141 0.22458,-1.69929 0.35742,-2.5898438 l 0.002,-0.011719 0.43945,-2.71875 0.002,-0.015625 c 0.15906,-0.90114121 0.31303,-1.7505712 0.45898,-2.546875 l 0.002,-0.015625 c 0.15903,-0.7953397 0.29979,-1.5057305 0.41993,-2.1328125 v -0.00391 c 8.9e-4,-0.00464 0.003,-0.010996 0.004,-0.015625 0.1318,-0.6192947 0.23799,-1.1100216 0.31641,-1.4628907 a 1.0075991,1.0075991 0 0 0 -0.8418,-1.2167969 c -0.30051,-0.042931 -0.60236,-0.035297 -0.9375,-0.00586 -0.31803,0.015934 -0.64573,0.052336 -0.98633,0.1113281 -0.34331,0.046466 -0.67684,0.1133061 -0.99804,0.2050781 -0.3361,0.096026 -0.6258,0.2034179 -0.89649,0.3613281 a 1.0075991,1.0075991 0 0 0 -0.39258,0.4199219 c -0.16901,0.3379508 -0.11318,0.3189585 -0.14453,0.4628907 -0.0314,0.1439321 -0.0678,0.3259391 -0.10937,0.5546874 -0.084,0.4486748 -0.17868,1.0277991 -0.28711,1.7460938 -0.10916,0.7096661 -0.22215,1.52068531 -0.34375,2.43945312 -0.0486,0.36216077 -0.0921,0.75985298 -0.13867,1.13476568 -0.0899,-0.031228 -0.15277,-0.096241 -0.25586,-0.1152344 -0.35926,-0.067953 -0.7293,-0.0919643 -1.10547,-0.0761719 -0.34022,0.001524 -0.66998,0.0231533 -0.98438,0.0703125 -0.33826,0.050738 -0.6588,0.1408126 -0.96093,0.2792969 -0.30278,0.1307228 -0.63555,0.3198773 -0.85157,0.7460937 -0.1803,0.3430028 -0.29631,0.7119196 -0.42382,1.2070313 -4.7e-4,0.00178 -0.001,0.00408 -0.002,0.00586 -1.8e-4,7.153e-4 1.9e-4,0.00124 0,0.00195 -0.12846,0.4862062 -0.24668,1.0321199 -0.35742,1.640625 -0.0658,0.3534226 -0.11069,0.7073366 -0.1582,1.0410156 -0.006,0.016157 -0.0181,0.051892 -0.0215,0.060547 0.0118,-0.083258 0.0233,-0.1690373 0.0352,-0.2519531 0.0815,-0.5702145 0.14981,-1.0888504 0.20508,-1.5585938 0.0535,-0.4549366 0.0816,-0.7414416 0.0605,-1.0683594 -0.0125,-0.7072578 -0.44616,-1.017936 -0.79102,-1.2480468 -0.319,-0.2240429 -0.67665,-0.3995162 -1.07422,-0.5429688 -0.38507,-0.1437379 -0.78392,-0.238253 -1.1875,-0.2890625 -0.4547,-0.071681 -0.92213,-0.073449 -1.38086,0.140625 a 1.0075991,1.0075991 0 0 0 -0.125,0.068359 1.0075991,1.0075991 0 0 0 -0.63867,-0.2832031 c -0.2434,-0.0152123 -0.50477,-0.0214844 -0.78906,-0.0214844 -0.2876,0 -0.58832,0.0130603 -0.90235,0.0429687 a 1.0075991,1.0075991 0 0 0 -0.004,0.00195 c -0.30387,0.030386 -0.60226,0.075187 -0.89453,0.1367188 -0.30527,0.064266 -0.59122,0.1482072 -0.85547,0.2539062 a 1.0075991,1.0075991 0 0 0 -0.61328,0.7382813 c -0.13973,0.6986159 -0.26353,1.4839299 -0.37305,2.3574219 -4.9e-4,0.00349 -0.001,0.00628 -0.002,0.00977 -2.7e-4,0.00212 2.6e-4,0.00374 0,0.00586 -0.0551,0.3966127 -0.0838,0.7730626 -0.11914,1.1230468 -0.0732,0.1934226 -0.14304,0.3800508 -0.2168,0.5644532 -0.0834,0.2085429 -0.15963,0.3923133 -0.24024,0.5898437 0.0486,-0.350157 0.0925,-0.6947984 0.15235,-1.0625 a 1.0075991,1.0075991 0 0 0 0,-0.00391 c 0.0932,-0.5856724 0.19412,-1.1773985 0.30078,-1.7773438 a 1.0075991,1.0075991 0 0 0 0,-0.00391 c 0.10587,-0.6087475 0.21622,-1.1887331 0.33398,-1.7382813 a 1.0075991,1.0075991 0 0 0 -0.91211,-1.2167968 c -0.20706,-0.0147902 -0.43705,-0.0186964 -0.68554,-0.0195313 -0.29937,-0.0157567 -0.60423,-0.006288 -0.91407,0.0234375 -0.31349,0.017936 -0.6285,0.066646 -0.94335,0.1445312 -0.31193,0.067361 -0.60762,0.1615478 -0.88086,0.2890626 a 1.0075991,1.0075991 0 0 0 -0.14649,0.083984 1.0075991,1.0075991 0 0 0 -0.80859,-0.5214843 c -0.22299,-0.0159281 -0.46666,-0.0214844 -0.73828,-0.0214844 -0.2876,0 -0.57908,0.0139767 -0.87305,0.0449218 -0.29245,0.030783 -0.57898,0.076361 -0.85938,0.1386719 -0.31906,0.070905 -0.61758,0.1743743 -0.89453,0.3359375 a 1.0075991,1.0075991 0 0 0 -0.46484,0.6054688 c -0.0575,0.2108559 -0.11013,0.473957 -0.17969,0.8496094 -0.0694,0.3613738 -0.14493,0.789609 -0.22656,1.2929687 -0.049,0.3022887 -0.0977,0.6537686 -0.14649,0.9882813 0.007,-0.1236953 3.1e-4,-0.2369931 0.008,-0.3613282 0.0926,-1.5485035 0.24514,-3.0989666 0.45703,-4.64843748 a 1.0075991,1.0075991 0 0 0 0,-0.001953 c 0.21138,-1.5589097 0.48353,-3.0476214 0.8125,-4.46875 a 1.0075991,1.0075991 0 0 0 -0.7207,-1.1992188 c -0.40576,-0.1092414 -0.8363,-0.1869427 -1.28907,-0.2324218 h -0.004 c -0.40299,-0.041637 -0.69589,-0.066406 -0.94727,-0.066406 a 1.0075991,1.0075991 0 0 0 -0.77539,0.3652344 c -0.36206,0.4374906 -0.77316,1.0132169 -1.25586,1.7441406 a 1.0075991,1.0075991 0 0 0 -0.004,0.00391 c -0.47274,0.7230174 -0.97277,1.5529335 -1.50586,2.4960937 -0.53224,0.94163947 -1.08267,1.96991843 -1.65235,3.0820313 -3.9e-4,7.554e-4 -0.002,0.0012 -0.002,0.00195 -2.8e-4,5.475e-4 2.8e-4,0.00141 0,0.00195 -0.0782,0.1507975 -0.14909,0.3164549 -0.22656,0.46875 -0.088,-0.6825019 -0.2439,-1.2419115 -0.29493,-1.99023435 V 0.4375 c -4e-5,-7.1877e-4 5e-5,-0.001234 0,-0.001953 -0.11535,-1.89157248 1.5e-4,-3.95533538 0.35352,-6.19335938 a 1.0075991,1.0075991 0 0 0 -0.33984,-0.921875 l -2.09766,-1.796875 A 1.0075991,1.0075991 0 0 0 149.38281,-8.71875 Z m 34.70117,10.1933594 0.0234,0.015625 c -0.004,-0.00282 -0.01,-0.00305 -0.0137,-0.00586 -0.004,-0.00251 -0.006,-0.00727 -0.01,-0.00977 z m 8.05274,6.2460937 c 0.0289,0.019789 0.0583,0.035907 0.0879,0.054687 -0.0224,0.2124873 -0.0358,0.4422102 -0.0684,0.6308594 a 1.0075991,1.0075991 0 0 0 -0.006,0.029297 c -0.05,0.3501585 -0.10542,0.6561427 -0.16406,0.9160156 -0.0525,0.2058501 -0.11655,0.3379198 -0.17578,0.4316406 -5.2e-4,-0.2617698 -5.1e-4,-0.5288405 0.0527,-0.8789062 0.0671,-0.3721303 0.16894,-0.776767 0.27344,-1.1835938 z M 187.82227,10.75 c 0.002,0.0044 0.006,0.0073 0.008,0.01172 0.002,0.0034 3.9e-4,0.0064 0.002,0.0098 z"
         id="text1734"
         style="font-style:normal;font-variant:normal;font-weight:normal;font-stretch:normal;font-size:20.18489075px;line-height:1.25;font-family:'MJ AlGhifari';-inkscape-font-specification:' MJ AlGhifari, Normal';font-variant-ligatures:normal;font-variant-caps:normal;font-variant-numeric:normal;font-feature-settings:normal;text-align:start;letter-spacing:0px;word-spacing:0px;writing-mode:lr-tb;text-anchor:start;display:inline;fill:#000000;fill-opacity:1;stroke:none;stroke-width:0.50461984"
         inkscape:original="M 149.375 -7.7109375 C 148.59452 -5.0465319 147.77333 -2.6051036 146.91211 -0.38476562 C 146.06434 1.8355724 145.17655 3.7806011 144.24805 5.4492188 C 143.31954 7.1043798 142.36319 8.4703475 141.38086 9.546875 C 140.39853 10.609946 139.3836 11.322219 138.33398 11.685547 C 138.60312 11.847026 138.97238 12.042722 139.44336 12.271484 C 139.91434 12.500246 140.41877 12.730222 140.95703 12.958984 C 141.4953 13.201203 142.034 13.423151 142.57227 13.625 C 143.11053 13.826849 143.5887 13.980238 144.00586 14.087891 C 145.27078 11.786813 146.34017 9.4926991 147.21484 7.2050781 C 148.10298 4.9174572 148.82935 2.6172685 149.39453 0.30273438 C 149.35416 1.2446959 149.37434 2.2596253 149.45508 3.3496094 C 149.53582 4.4395935 149.65081 5.5029048 149.79883 6.5390625 C 149.96031 7.5617636 150.14798 8.5040124 150.36328 9.3652344 C 150.57859 10.213 150.80053 10.864741 151.0293 11.322266 L 153.61328 9.8691406 L 153.33008 9.0019531 C 153.73378 7.615924 154.2382 6.1429961 154.84375 4.5820312 C 155.46275 3.0076098 156.1568 1.4863 156.92383 0.01953125 C 156.68161 1.2171681 156.47181 2.2603023 156.29688 3.1484375 C 156.12194 4.0365727 155.97462 4.8174047 155.85352 5.4902344 C 155.74586 6.1496075 155.65105 6.7267154 155.57031 7.2246094 C 155.50303 7.7225033 155.4425 8.1805018 155.38867 8.5976562 C 155.33485 9.0013541 155.28842 9.3988213 155.24805 9.7890625 C 155.20768 10.165847 155.16732 10.575464 155.12695 11.019531 C 155.3288 11.207924 155.577 11.423797 155.87305 11.666016 C 156.18255 11.894778 156.50538 12.1228 156.8418 12.351562 C 157.17821 12.566868 157.50907 12.770592 157.83203 12.958984 C 158.16845 13.147377 158.45093 13.288616 158.67969 13.382812 C 158.53166 12.171719 158.44488 10.832003 158.41797 9.3652344 C 158.39106 7.8984656 158.42338 6.3851836 158.51758 4.8242188 C 158.61177 3.2497973 158.76712 1.6740309 158.98242 0.099609375 C 159.19773 -1.4882687 159.47413 -3.0076254 159.81055 -4.4609375 C 159.46068 -4.5551337 159.08339 -4.6236927 158.67969 -4.6640625 C 158.28945 -4.7044323 158.00697 -4.7246094 157.83203 -4.7246094 C 157.50907 -4.3343682 157.11161 -3.7815588 156.64062 -3.0683594 C 156.1831 -2.3686165 155.69278 -1.5554581 155.16797 -0.62695312 C 154.64316 0.30155185 154.09838 1.3184343 153.5332 2.421875 C 152.96803 3.5118591 152.42129 4.6417763 151.89648 5.8125 C 151.50624 4.2515351 151.24394 2.4820255 151.10938 0.50390625 C 150.98827 -1.474213 151.10933 -3.612985 151.47266 -5.9140625 L 149.375 -7.7109375 z M 187.79492 -5.2480469 C 187.51233 -5.2345903 187.21575 -5.2022639 186.90625 -5.1484375 C 186.59675 -5.1080677 186.30212 -5.0475364 186.01953 -4.9667969 C 185.73694 -4.8860573 185.51499 -4.7973212 185.35352 -4.703125 C 185.3266 -4.6492986 185.27215 -4.4010988 185.19141 -3.9570312 C 185.11067 -3.5264202 185.01586 -2.9534338 184.9082 -2.2402344 C 184.80055 -1.5404915 184.68752 -0.73340776 184.56641 0.18164062 C 184.4453 1.0832324 184.33031 2.0254812 184.22266 3.0078125 C 183.99389 2.6983108 183.76587 2.468335 183.53711 2.3203125 C 183.3218 2.17229 183.13826 2.0855069 182.99023 2.0585938 C 182.70765 2.0047674 182.41302 1.9845903 182.10352 1.9980469 C 181.79401 1.9980469 181.50351 2.018224 181.23438 2.0585938 C 180.96524 2.0989635 180.73115 2.1655695 180.5293 2.2597656 C 180.3409 2.3405052 180.21984 2.435316 180.16602 2.5429688 C 180.05836 2.7448177 179.94337 3.0817536 179.82227 3.5527344 C 179.70116 4.0102586 179.58617 4.534863 179.47852 5.1269531 C 179.41415 5.4729063 179.36529 5.8615138 179.31055 6.2363281 C 179.28637 6.298973 179.26914 6.3544992 179.24414 6.4179688 C 179.08266 6.8485798 178.92124 7.2722987 178.75977 7.6894531 C 178.59829 8.1066075 178.43687 8.4899723 178.27539 8.8398438 C 178.12737 9.1897152 177.99828 9.4721945 177.89062 9.6875 C 177.44656 10.548722 177.13783 10.91191 176.96289 10.777344 C 176.78795 10.629321 176.77385 9.9836542 176.92188 8.8398438 C 176.96224 8.4361459 177.02278 7.945821 177.10352 7.3671875 C 177.18426 6.788554 177.26496 6.2155676 177.3457 5.6503906 C 177.42644 5.0852137 177.495 4.5747117 177.54883 4.1171875 C 177.60265 3.6596633 177.62283 3.3509323 177.60938 3.1894531 C 177.60938 3.0548872 177.48831 2.9056198 177.24609 2.7441406 C 177.01733 2.5826615 176.73485 2.4414218 176.39844 2.3203125 C 176.07548 2.1992032 175.74462 2.1184948 175.4082 2.078125 C 175.07179 2.0242986 174.80341 2.0444757 174.60156 2.1386719 C 174.29206 2.3405208 173.96923 2.7440627 173.63281 3.3496094 C 173.2964 3.9551561 172.96554 4.7824169 172.64258 5.8320312 C 172.70986 5.3745071 172.77039 4.9850676 172.82422 4.6621094 C 172.87805 4.3391511 172.9325 4.0425694 172.98633 3.7734375 C 173.04015 3.490849 173.09461 3.2163975 173.14844 2.9472656 C 173.20226 2.6781337 173.26887 2.3674496 173.34961 2.0175781 C 173.1343 2.0041215 172.89218 1.9980469 172.62305 1.9980469 C 172.36737 1.9980469 172.09899 2.0101962 171.81641 2.0371094 C 171.54727 2.0640226 171.28497 2.1043767 171.0293 2.1582031 C 170.77362 2.2120295 170.54365 2.2805886 170.3418 2.3613281 C 170.20723 3.0341578 170.08617 3.8008874 169.97852 4.6621094 C 169.9224 5.0611384 169.89221 5.4859003 169.84766 5.8964844 C 169.75822 6.1306639 169.67462 6.358369 169.57812 6.5996094 C 169.38973 7.0705902 169.20814 7.5144862 169.0332 7.9316406 C 168.85827 8.348795 168.69078 8.7321598 168.5293 9.0820312 C 168.38127 9.4184461 168.26021 9.6746737 168.16602 9.8496094 C 167.9238 10.293677 167.72203 10.576156 167.56055 10.697266 C 167.39907 10.818375 167.27801 10.818375 167.19727 10.697266 C 167.11653 10.5627 167.06814 10.320575 167.05469 9.9707031 C 167.05469 9.6073751 167.08897 9.1775815 167.15625 8.6796875 C 167.19662 8.2625331 167.25108 7.7904322 167.31836 7.265625 C 167.38564 6.7273612 167.46635 6.1684773 167.56055 5.5898438 C 167.65474 4.9977536 167.75563 4.4004686 167.86328 3.7949219 C 167.97093 3.1759186 168.08397 2.5827551 168.20508 2.0175781 C 168.01669 2.0041215 167.79474 1.9980469 167.53906 1.9980469 C 167.28339 1.9845903 167.02109 1.9906649 166.75195 2.0175781 C 166.49628 2.0310347 166.23398 2.0713889 165.96484 2.1386719 C 165.70917 2.1924983 165.48115 2.267132 165.2793 2.3613281 C 165.17164 3.1418106 165.03648 3.9428197 164.875 4.7636719 C 164.71352 5.5710675 164.53193 6.3377971 164.33008 7.0644531 C 164.14169 7.7776526 163.94599 8.4233196 163.74414 9.0019531 C 163.54229 9.5805867 163.3607 10.024483 163.19922 10.333984 C 163.0512 10.630029 162.92406 10.765194 162.81641 10.738281 C 162.70875 10.711368 162.6543 10.455141 162.6543 9.9707031 C 162.6543 9.6746581 162.6825 9.2368367 162.73633 8.6582031 C 162.80361 8.0795696 162.89039 7.4278279 162.99805 6.7011719 C 163.1057 5.9610592 163.22676 5.1863019 163.36133 4.3789062 C 163.50935 3.558054 163.66469 2.7711474 163.82617 2.0175781 C 163.63778 2.0041215 163.41583 1.9980469 163.16016 1.9980469 C 162.90448 1.9980469 162.64825 2.0101962 162.39258 2.0371094 C 162.1369 2.0640226 161.8887 2.1043767 161.64648 2.1582031 C 161.40427 2.2120295 161.20249 2.2866632 161.04102 2.3808594 C 161.00065 2.5288819 160.94619 2.7851095 160.87891 3.1484375 C 160.81162 3.4983089 160.73699 3.9220279 160.65625 4.4199219 C 160.57551 4.9178158 160.4948 5.4625974 160.41406 6.0546875 C 160.33332 6.6467776 160.26672 7.2460158 160.21289 7.8515625 C 160.14561 8.4571092 160.09723 9.0563474 160.07031 9.6484375 C 160.0434 10.240528 160.0434 10.777281 160.07031 11.261719 C 160.11068 11.369372 160.2196 11.490434 160.39453 11.625 C 160.55601 11.759566 160.75171 11.888656 160.98047 12.009766 C 161.20923 12.130875 161.43725 12.237835 161.66602 12.332031 C 161.89478 12.412771 162.09047 12.453125 162.25195 12.453125 C 162.52109 12.453125 162.76928 12.346165 162.99805 12.130859 C 163.22681 11.902097 163.43465 11.61159 163.62305 11.261719 C 163.8249 10.911847 164.00649 10.528483 164.16797 10.111328 C 164.32945 9.6807171 164.47872 9.2650259 164.61328 8.8613281 C 164.59982 8.9286111 164.58572 9.0557483 164.57227 9.2441406 C 164.55881 9.4325329 164.54471 9.6403785 164.53125 9.8691406 C 164.53125 10.084446 164.52518 10.300319 164.51172 10.515625 C 164.51172 10.730931 164.51779 10.886273 164.53125 10.980469 C 164.55816 11.141948 164.66708 11.309439 164.85547 11.484375 C 165.05732 11.645854 165.29337 11.801196 165.5625 11.949219 C 165.83163 12.097241 166.10608 12.218304 166.38867 12.3125 C 166.67126 12.406696 166.91339 12.453125 167.11523 12.453125 C 167.35745 12.453125 167.61368 12.285634 167.88281 11.949219 C 168.1654 11.599347 168.44181 11.155451 168.71094 10.617188 C 168.99353 10.065467 169.26798 9.4460519 169.53711 8.7597656 C 169.56777 8.681576 169.59469 8.6035803 169.625 8.5253906 C 169.59334 9.0281505 169.55014 9.5368307 169.53516 10.03125 C 169.50824 10.919385 169.51432 11.726469 169.55469 12.453125 L 170.01953 12.453125 C 170.22138 12.439668 170.42923 12.419491 170.64453 12.392578 C 170.87329 12.352208 171.09524 12.311854 171.31055 12.271484 C 171.52585 12.217658 171.70745 12.157127 171.85547 12.089844 C 171.86893 11.820712 171.91731 11.483776 171.99805 11.080078 C 172.07879 10.662924 172.17164 10.219028 172.2793 9.7480469 C 172.40041 9.2636095 172.5295 8.7732846 172.66406 8.2753906 C 172.81209 7.7640401 172.96547 7.2797898 173.12695 6.8222656 C 173.28843 6.3647414 173.44377 5.9531718 173.5918 5.5898438 C 173.75328 5.2130591 173.90862 4.9184305 174.05664 4.703125 C 174.09701 4.6492986 174.14344 4.6009167 174.19727 4.5605469 C 174.26455 4.5201771 174.32508 4.5544566 174.37891 4.6621094 C 174.43273 4.7563055 174.45898 4.9520018 174.45898 5.2480469 C 174.47244 5.5306353 174.44011 5.960429 174.35938 6.5390625 C 174.31901 6.8620208 174.27865 7.2191338 174.23828 7.609375 C 174.19791 7.9861596 174.15756 8.3755991 174.11719 8.7792969 C 174.07682 9.1695381 174.04254 9.5609307 174.01562 9.9511719 C 173.98871 10.327957 173.96853 10.670967 173.95508 10.980469 C 173.95508 11.088122 174.05596 11.229361 174.25781 11.404297 C 174.47312 11.565776 174.72935 11.727193 175.02539 11.888672 C 175.33489 12.036694 175.65165 12.169906 175.97461 12.291016 C 176.31102 12.398668 176.59958 12.453125 176.8418 12.453125 C 177.07056 12.466582 177.31268 12.31124 177.56836 11.988281 C 177.83749 11.651866 178.09979 11.222073 178.35547 10.697266 C 178.56809 10.272019 178.77234 9.7781817 178.97656 9.2773438 C 178.95149 9.6686468 178.92392 10.065764 178.93359 10.394531 C 178.93359 10.838599 178.98198 11.155358 179.07617 11.34375 C 179.15691 11.505229 179.31833 11.658618 179.56055 11.806641 C 179.78931 11.954663 180.04358 12.083753 180.32617 12.191406 C 180.60876 12.299059 180.87909 12.379767 181.13477 12.433594 C 181.4039 12.48742 181.60567 12.499569 181.74023 12.472656 C 181.90171 12.432286 182.06313 12.319252 182.22461 12.130859 C 182.39955 11.942467 182.56096 11.706417 182.70898 11.423828 C 182.87046 11.14124 183.02581 10.824481 183.17383 10.474609 C 183.32185 10.124738 183.45506 9.7756527 183.57617 9.4257812 C 183.54926 9.7218263 183.52908 10.01038 183.51562 10.292969 L 183.51562 10.980469 C 183.54254 11.141948 183.65753 11.309439 183.85938 11.484375 C 184.07468 11.645854 184.33091 11.801196 184.62695 11.949219 C 184.923 12.097241 185.23173 12.218304 185.55469 12.3125 C 185.87765 12.406696 186.17423 12.453125 186.44336 12.453125 C 186.63175 12.453125 186.8537 12.271531 187.10938 11.908203 C 187.36505 11.531418 187.62735 11.053243 187.89648 10.474609 C 188.10137 10.034101 188.30488 9.5263238 188.50977 9.015625 C 188.5198 9.4963796 188.56729 9.9581181 188.74805 10.353516 C 188.9499 10.824496 189.2263 11.228038 189.57617 11.564453 C 189.92604 11.900868 190.32959 12.16317 190.78711 12.351562 C 191.25809 12.539955 191.74234 12.64084 192.24023 12.654297 C 192.40171 12.654297 192.62974 12.613943 192.92578 12.533203 C 193.23528 12.452464 193.54401 12.339429 193.85352 12.191406 C 194.16302 12.043384 194.44745 11.86179 194.70312 11.646484 C 194.97226 11.431179 195.15385 11.201203 195.24805 10.958984 C 195.43644 10.434177 195.57768 9.8429668 195.67188 9.1835938 C 195.77953 8.5242207 195.86024 7.7837428 195.91406 6.9628906 C 196.14282 6.8821511 196.4253 6.726809 196.76172 6.4980469 C 197.11159 6.2558282 197.4546 5.9813767 197.79102 5.671875 C 198.14089 5.3623733 198.46372 5.0315121 198.75977 4.6816406 C 199.05581 4.3317692 199.26366 3.9967864 199.38477 3.6738281 L 198.83984 3.1679688 C 198.55726 3.7869721 198.14764 4.3599585 197.60938 4.8847656 C 197.08457 5.4095728 196.52568 5.8191893 195.93359 6.1152344 C 195.94705 6.061408 195.94098 5.8737395 195.91406 5.5507812 C 195.90061 5.2143664 195.8724 4.8572534 195.83203 4.4804688 C 195.80512 4.0902275 195.77279 3.7270398 195.73242 3.390625 C 195.69205 3.0542102 195.6517 2.8524392 195.61133 2.7851562 C 195.58441 2.7044167 195.44318 2.6156805 195.1875 2.5214844 C 194.93182 2.4272882 194.63524 2.3546076 194.29883 2.3007812 C 193.97587 2.2334983 193.64501 2.1992188 193.30859 2.1992188 C 192.97218 2.1992188 192.7038 2.2536754 192.50195 2.3613281 C 192.20591 2.3075017 191.8629 2.2873247 191.47266 2.3007812 C 191.08242 2.3007812 190.69298 2.3814896 190.30273 2.5429688 C 190.20854 2.6640781 190.07337 2.9404827 189.89844 3.3710938 C 189.75331 3.7171668 189.60802 4.1604818 189.46289 4.6269531 C 189.36113 4.888074 189.27257 5.1193675 189.14844 5.4296875 C 188.94659 5.9679513 188.71661 6.5389845 188.46094 7.1445312 C 188.20526 7.7366214 187.94903 8.2894307 187.69336 8.8007812 C 187.45114 9.3121318 187.22312 9.7358508 187.00781 10.072266 C 186.79251 10.40868 186.61699 10.582247 186.48242 10.595703 C 186.3344 10.595703 186.25369 10.462491 186.24023 10.193359 C 186.22678 9.9107709 186.24088 9.3922411 186.28125 8.6386719 C 186.32162 7.9658422 186.39625 7.2051873 186.50391 6.3574219 C 186.61156 5.5096565 186.73262 4.6359668 186.86719 3.734375 L 187.31055 0.98828125 C 187.47203 0.073232869 187.62737 -0.7883075 187.77539 -1.5957031 C 187.93687 -2.4030988 188.07811 -3.1233995 188.19922 -3.7558594 C 188.33378 -4.3883193 188.44074 -4.8847188 188.52148 -5.2480469 C 188.33309 -5.2749601 188.09097 -5.2749601 187.79492 -5.2480469 z M 183.03125 3.1894531 C 183.11199 3.1490833 183.21288 3.1753351 183.33398 3.2695312 C 183.45509 3.3637274 183.57008 3.5049671 183.67773 3.6933594 C 183.78539 3.8682951 183.8661 4.0761407 183.91992 4.3183594 C 183.9872 4.5605781 184.01346 4.810731 184 5.0664062 C 183.87889 5.8468887 183.7255 6.5732641 183.53711 7.2460938 C 183.34872 7.9189234 183.15302 8.5101338 182.95117 9.0214844 C 182.74932 9.5193783 182.55363 9.9229202 182.36523 10.232422 C 182.1903 10.541924 182.05513 10.723517 181.96094 10.777344 C 181.79946 10.87154 181.6925 10.76458 181.63867 10.455078 C 181.5983 10.13212 181.59223 9.7023263 181.61914 9.1640625 C 181.65951 8.6257987 181.72612 8.0265606 181.82031 7.3671875 C 181.92797 6.7078144 182.04903 6.0823245 182.18359 5.4902344 C 182.31816 4.8846877 182.4594 4.3661579 182.60742 3.9355469 C 182.75544 3.5049359 182.89668 3.2567361 183.03125 3.1894531 z M 192.76367 3.6132812 C 192.84441 3.5729115 192.92512 3.6334427 193.00586 3.7949219 C 193.0866 3.9429444 193.16123 4.2254237 193.22852 4.6425781 C 193.25543 4.91171 193.27561 5.2063386 193.28906 5.5292969 C 193.31598 5.8387985 193.33008 6.1152032 193.33008 6.3574219 C 193.18206 6.2901389 193.04689 6.1892534 192.92578 6.0546875 C 192.81813 5.9201216 192.73135 5.7728073 192.66406 5.6113281 C 192.59678 5.449849 192.54232 5.2884323 192.50195 5.1269531 C 192.47504 4.965474 192.46094 4.8101319 192.46094 4.6621094 C 192.46094 4.3795209 192.48914 4.1434704 192.54297 3.9550781 C 192.61025 3.7532292 192.68293 3.6401944 192.76367 3.6132812 z M 191.73438 5.4492188 C 191.81511 5.9201995 191.98456 6.3237414 192.24023 6.6601562 C 192.50937 6.9831145 192.85845 7.1989879 193.28906 7.3066406 C 193.26215 7.7641648 193.21572 8.1878838 193.14844 8.578125 C 193.09461 8.9549096 193.03408 9.2918456 192.9668 9.5878906 C 192.88606 9.9108489 192.77107 10.179226 192.62305 10.394531 C 192.47502 10.609837 192.31361 10.771253 192.13867 10.878906 C 191.96374 10.986559 191.78822 11.04709 191.61328 11.060547 C 191.43835 11.074003 191.29103 11.047752 191.16992 10.980469 C 190.94116 10.81899 190.81402 10.53651 190.78711 10.132812 C 190.7602 9.7291147 190.78645 9.2650415 190.86719 8.7402344 C 190.96138 8.2154272 191.08852 7.6626179 191.25 7.0839844 C 191.41148 6.5053508 191.5729 5.9605693 191.73438 5.4492188 z "
         inkscape:radius="1.0074984"
         sodipodi:type="inkscape:offset" />
      <text
         transform="rotate(-8.912197)"
         xml:space="preserve"
         style="font-style:normal;font-variant:normal;font-weight:normal;font-stretch:normal;font-size:22.51512146px;line-height:1.25;font-family:'MJ AlGhifari';-inkscape-font-specification:' MJ AlGhifari, Normal';font-variant-ligatures:normal;font-variant-caps:normal;font-variant-numeric:normal;font-feature-settings:normal;text-align:start;letter-spacing:0px;word-spacing:0px;writing-mode:lr-tb;text-anchor:start;display:inline;fill:#ffcc00;fill-opacity:1;stroke:none;stroke-width:0.56287527"
         x="52.742947"
         y="85.209129"
         id="text1168"
         inkscape:export-filename="/var/www/html/mundoanimalito.com/public/img/logo.png"
         inkscape:export-xdpi="96"
         inkscape:export-ydpi="96"><tspan
           sodipodi:role="line"
           id="tspan1166"
           x="52.742947"
           y="85.209129"
           style="font-style:normal;font-variant:normal;font-weight:normal;font-stretch:normal;font-size:22.51512146px;font-family:'MJ AlGhifari';-inkscape-font-specification:' MJ AlGhifari, Normal';font-variant-ligatures:normal;font-variant-caps:normal;font-variant-numeric:normal;font-feature-settings:normal;text-align:start;writing-mode:lr-tb;text-anchor:start;fill:#ffcc00;stroke-width:0.56287527">Mundo</tspan></text>
    </g>
  </g>
</svg>
